<?xml version="1.0" encoding="UTF-8"?>
<svg width="150px" height="150px" viewBox="0 0 150 150" version="1.1" xmlns="http://www.w3.org/2000/svg" xmlns:xlink="http://www.w3.org/1999/xlink">
    <!-- Generator: Sketch 57.1 (83088) - https://sketch.com -->
    <title>Artboard Copy 4</title>
    <desc>Created with Sketch.</desc>
    <g id="Artboard-Copy-4" stroke="none" stroke-width="1" fill="none" fill-rule="evenodd">
        <g id="noun_Museum_1744831" transform="translate(19.000000, 19.000000)" fill="#fff">
            <path d="M104,32 C104,40.824 96.824,48 88,48 L82,48 C76.4798937,47.9933878 72.0066122,43.5201063 72,38 L72,32 C72,29.792 73.796,28 76,28 L80,28 C82.204,28 84,29.792 84,32 L84,36 L92,36 L92,32 C92,25.384 86.616,20 80,20 L76,20 C69.384,20 64,25.384 64,32 L64,32.312 L48,32.312 L48,32 C48,25.384 42.616,20 36,20 L32,20 C25.384,20 20,25.384 20,32 L20,36 L28,36 L28,32 C28,29.792 29.796,28 32,28 L36,28 C38.204,28 40,29.792 40,32 L40,38 C40,43.516 35.512,48 30,48 L24,48 C15.176,48 8,40.824 8,32 L8,26 C8,16.076 16.076,8 26,8 L86,8 C95.924,8 104,16.076 104,26 L104,32 Z M86,0 L26,0 C11.6479061,0.0176315849 0.0176315849,11.6479061 0,26 L0,32 C0,45.236 10.764,56 24,56 L30,56 C39.136,56 46.616,49.136 47.764,40.312 L64.236,40.312 C65.384,49.136 72.864,56 82,56 L88,56 C101.236,56 112,45.236 112,32 L112,26 C112,11.664 100.336,0 86,0 Z M64,76 L72,76 L72,64 L64,64 L64,76 Z M40,76 L48,76 L48,64 L40,64 L40,76 Z M96,104 L16,104 L16,96 C16,93.792 17.796,92 20,92 L92,92 C94.204,92 96,93.792 96,96 L96,104 Z M92,84 L92,64 L84,64 L84,84 L28,84 L28,64 L20,64 L20,84 C13.384,84 8,89.384 8,96 L8,112 L104,112 L104,96 C104,89.384 98.616,84 92,84 Z" id="Shape"></path>
        </g>
    </g>
</svg>