<?xml version="1.0" encoding="UTF-8"?>
<svg width="150px" height="150px" viewBox="0 0 150 150" version="1.1" xmlns="http://www.w3.org/2000/svg" xmlns:xlink="http://www.w3.org/1999/xlink">
    <!-- Generator: Sketch 57.1 (83088) - https://sketch.com -->
    <title>Artboard Copy</title>
    <desc>Created with Sketch.</desc>
    <g id="Artboard-Copy" stroke="none" stroke-width="1" fill="none" fill-rule="evenodd">
        <g id="noun_education_1747736-(1)" transform="translate(11.000000, 19.000000)" fill="#fff">
            <path d="M108,103.28 C105.386921,104.036046 102.613079,104.036046 100,103.28 L100,93.656 L104,89.656 L108,93.656 L108,103.28 Z M122.212,26.632 L73.368,2.208 C67.4565868,-0.680212094 60.5434132,-0.680212094 54.632,2.208 L5.784,26.632 C2.23101077,28.4002375 -0.0109069856,32.0313381 -3.96177602e-05,36 C-3.96177602e-05,39.988 2.22,43.576 5.788,45.364 L20,52.472 L20,76 C20,89.456 39.328,100 64,100 C71.412,100 78.712,99.02 85.112,97.168 L82.888,89.48 C77.2,91.128 70.668,92 64,92 C42.784,92 28,83.564 28,76 L28,56.472 L54.632,69.792 C57.5428137,71.2400156 60.748913,71.9956804 64,72 C67.236,72 70.472,71.232 73.368,69.788 L89.788,61.576 L86.212,54.42 L69.788,62.632 C66.1365145,64.4202315 61.8634855,64.4202315 58.212,62.632 L9.372,38.208 C8.5300511,37.7949358 7.99745498,36.9378132 8,36 C8,35.056 8.524,34.208 9.368,33.788 L58.212,9.364 C61.8634855,7.57576845 66.1365145,7.57576845 69.788,9.364 L118.628,33.788 C119.47125,34.2016959 120.004079,35.0607459 120,36 C120.00234,36.936644 119.471727,37.7930714 118.632,38.208 L103.728,45.664 L65.32,32.224 L62.68,39.776 L100,52.84 L100,82.344 L92,90.344 L92,108.472 L94.212,109.576 C94.708,109.824 99.196,112 104,112 C108.804,112 113.292,109.824 113.788,109.576 L116,108.472 L116,90.344 L108,82.344 L108,52.472 L122.216,45.364 C125.767062,43.5977674 128.008806,39.9700486 128.000026,36.004 C128.000026,32.012 125.78,28.42 122.212,26.632 Z" id="Shape"></path>
        </g>
    </g>
</svg>