<?xml version="1.0" encoding="UTF-8"?>
<svg width="150px" height="150px" viewBox="0 0 150 150" version="1.1" xmlns="http://www.w3.org/2000/svg" xmlns:xlink="http://www.w3.org/1999/xlink">
    <!-- Generator: Sketch 57.1 (83088) - https://sketch.com -->
    <title>Artboard Copy 2</title>
    <desc>Created with Sketch.</desc>
    <g id="Artboard-Copy-2" stroke="none" stroke-width="1" fill="none" fill-rule="evenodd">
        <g id="noun_Sewing-Machine_1744876" transform="translate(15.000000, 27.000000)" fill="#fff">
            <path d="M84,24 L96,24 L96,16 L84,16 L84,24 Z M120,72 L120,96 L0,96 L0,80 C0,73.384 5.384,68 12,68 L100,68 L100,76 L12,76 C9.790861,76 8,77.790861 8,80 L8,88 L112,88 L112,72.236 L104.86,11.536 C104.624606,9.52044204 102.917257,8.00050573 100.888,8 L20,8 C17.790861,8 16,9.790861 16,12 L16,37.528 C16.0022065,41.1014725 18.8985275,43.9977935 22.472,44 L33.528,44 C37.1014725,43.9977935 39.9977935,41.1014725 40,37.528 L40,16 L48,16 L48,28 L64,28 C75.028,28 84,36.972 84,48 L84,60 L76,60 L76,48 C76,41.384 70.616,36 64,36 L48,36 L48,37.528 C48.0168987,43.0143586 44.9147515,48.0336328 40,50.472 C38,51.472 35.76,52 33.528,52 L32,52 L32,60 L24,60 L24,52 L22.472,52 C20.2256468,51.9970268 18.0104797,51.4740393 16,50.472 C11.0852485,48.0336328 7.98310128,43.0143586 8,37.528 L8,12 C8,5.384 13.384,0 20,0 L100.888,0 C106.964,0 112.088,4.556 112.804,10.596 L120,72 Z" id="Shape"></path>
        </g>
    </g>
</svg>