<?xml version="1.0" encoding="UTF-8"?>
<svg width="150px" height="150px" viewBox="0 0 150 150" version="1.1" xmlns="http://www.w3.org/2000/svg" xmlns:xlink="http://www.w3.org/1999/xlink">
    <!-- Generator: Sketch 57.1 (83088) - https://sketch.com -->
    <title>Artboard Copy 3</title>
    <desc>Created with Sketch.</desc>
    <g id="Artboard-Copy-3" stroke="none" stroke-width="1" fill="none" fill-rule="evenodd">
        <g id="noun_Planetarium_1744833-(1)" transform="translate(14.000000, 17.000000)" fill="#fff">
            <path d="M35.672,17.22 L27.672,5.22 L34.328,0.78 L42.328,12.78 L35.672,17.22 L35.672,17.22 Z M12.78,42.328 L0.78,34.328 L5.22,27.672 L17.22,35.672 L12.78,42.328 Z M20.172,25.828 L4.172,9.828 L9.828,4.172 L25.828,20.172 L20.172,25.828 Z M99,107 C90.176,107 83,99.824 83,91 C83,82.176 90.176,75 99,75 C107.824,75 115,82.176 115,91 C115,99.824 107.824,107 99,107 Z M23.92,105.5 C20.6625009,107.785524 16.2339819,107.400973 13.4191979,104.58816 C10.604414,101.775348 10.2167593,97.3470999 12.5,94.088 C16.2454332,88.8271877 20.1403545,83.6744203 24.18,78.636 C26.322485,82.4510298 29.0763967,85.8886899 32.332,88.812 L37.668,82.852 C30.8843375,76.7783707 27.0052496,68.1053294 27,59 C27,41.356 41.356,27 59,27 C65.72,27 72.088,29.12 77.36,32.812 C70.6577824,40.9181539 63.5877036,48.7129926 56.172,56.172 C53.580746,58.7592692 50.9456986,61.3023032 48.268,63.8 L53.732,69.648 C56.4757148,67.0883783 59.1747881,64.4813189 61.828,61.828 C69.3222993,54.2972848 76.4697055,46.4291318 83.248,38.248 C85.272,40.608 86.944,43.272 88.232,46.196 C81.8675588,53.8090964 75.1745497,61.141378 68.172,68.172 C49.628,86.712 31.048,100.452 23.92,105.5 L23.92,105.5 Z M94.064,12.368 C95.4708706,11.4400885 97.1270882,10.9628969 98.812,11 C101.870221,11.0046427 104.671477,12.7115694 106.077708,15.4273108 C107.483939,18.1430522 107.261206,21.4158223 105.5,23.916 C101.760769,29.1743982 97.8697996,34.32323 93.832,39.356 C90.1867445,32.9279889 84.8366487,27.6318786 78.372,24.052 C85.668,18.172 91.18,14.304 94.064,12.368 L94.064,12.368 Z M99,67 C87.348,67 77.616,75.352 75.456,86.384 C69.46393,89.9601057 62.4774318,91.5061139 55.536,90.792 C61.837435,85.3614753 67.9388193,79.7030517 73.828,73.828 C92.804,54.856 106.868,35.836 112.032,28.536 C113.968259,25.8039105 115.005622,22.5366388 115,19.188 C115,10.264 107.74,3 98.592,3 C95.376,3 92.268,3.944 89.604,5.72 C86.18,8.02 79.196,12.948 69.988,20.576 C66.4171129,19.5391424 62.7183644,19.0086339 59,19 C36.944,19 19,36.948 19,59 C19,62.848 19.6,66.628 20.668,70.256 C15.5517981,76.4916427 10.648969,82.8993402 5.968,89.468 C4.03205195,92.1987366 2.99467883,95.4646445 2.99997963,98.812 C3.00902506,104.859305 6.38470078,110.3984 11.7552014,113.178275 C17.125702,115.958151 23.5972878,115.51619 28.54,112.032 C35.0986672,107.356789 41.4970062,102.460646 47.724,97.352 C51.384716,98.4368357 55.181932,98.9918031 59,99 C64.6667499,98.9902233 70.2661483,97.7710655 75.424,95.424 C77.508,106.552 87.276,115 99,115 C112.236,115 123,104.236 123,91 C123,77.768 112.236,67 99,67 Z" id="Shape"></path>
        </g>
    </g>
</svg>